<svg width="100" height="100" viewBox="0 0 100 100" fill="none" xmlns="http://www.w3.org/2000/svg">
<rect width="100" height="100" rx="12" fill="#FAF9FB"/>
<path d="M45 80C45 77.2386 47.2386 75 50 75C52.7614 75 55 77.2386 55 80C55 82.7614 52.7614 85 50 85C47.2386 85 45 82.7614 45 80Z" fill="#080213"/>
<path d="M45 80C45 77.2386 47.2386 75 50 75C52.7614 75 55 77.2386 55 80C55 82.7614 52.7614 85 50 85C47.2386 85 45 82.7614 45 80Z" fill="#080213"/>
<path d="M35 65C35 62.2386 37.2386 60 40 60C42.7614 60 45 62.2386 45 65V70C45 72.7614 42.7614 75 40 75C37.2386 75 35 72.7614 35 70V65Z" fill="#080213"/>
<path d="M55 53C55 50.2386 57.2386 48 60 48C62.7614 48 65 50.2386 65 53V70C65 72.7614 62.7614 75 60 75C57.2386 75 55 72.7614 55 70V53Z" fill="#080213"/>
<path d="M65 48C67.7614 48 70 50.2386 70 53C70 55.7614 67.7614 58 65 58L60 58C57.2386 58 55 55.7614 55 53C55 50.2386 57.2386 48 60 48H65Z" fill="#080213"/>
<path d="M80 38C82.7614 38 85 40.2386 85 43C85 45.7614 82.7614 48 80 48H75C72.2386 48 70 45.7614 70 43C70 40.2386 72.2386 38 75 38L80 38Z" fill="#080213"/>
<path d="M80 58C82.7614 58 85 60.2386 85 63C85 65.7614 82.7614 68 80 68H75C72.2386 68 70 65.7614 70 63C70 60.2386 72.2386 58 75 58H80Z" fill="#080213"/>
</svg>
